<svg id="visual" viewBox="0 0 900 900" width="900" height="900" xmlns="http://www.w3.org/2000/svg" xmlns:xlink="http://www.w3.org/1999/xlink" version="1.1"><path d="M0 448L25 449C50 450 100 452 150 448.3C200 444.7 250 435.3 300 429.3C350 423.3 400 420.7 450 429.5C500 438.3 550 458.7 600 457C650 455.3 700 431.7 750 422.5C800 413.3 850 418.7 875 421.3L900 424L900 0L875 0C850 0 800 0 750 0C700 0 650 0 600 0C550 0 500 0 450 0C400 0 350 0 300 0C250 0 200 0 150 0C100 0 50 0 25 0L0 0Z" fill="#113946" stroke-linecap="round" stroke-linejoin="miter"></path></svg>