<svg id="visual" viewBox="0 0 675 900" width="675" height="900" xmlns="http://www.w3.org/2000/svg" xmlns:xlink="http://www.w3.org/1999/xlink" version="1.1"><rect x="0" y="0" width="675" height="900" fill="#403d39"></rect><defs><linearGradient id="grad1_0" x1="0%" y1="0%" x2="100%" y2="100%"><stop offset="30%" stop-color="#feecd3" stop-opacity="1"></stop><stop offset="70%" stop-color="#feecd3" stop-opacity="1"></stop></linearGradient></defs><defs><linearGradient id="grad1_1" x1="0%" y1="0%" x2="100%" y2="100%"><stop offset="30%" stop-color="#feecd3" stop-opacity="1"></stop><stop offset="70%" stop-color="#998f82" stop-opacity="1"></stop></linearGradient></defs><defs><linearGradient id="grad1_2" x1="0%" y1="0%" x2="100%" y2="100%"><stop offset="30%" stop-color="#403d39" stop-opacity="1"></stop><stop offset="70%" stop-color="#998f82" stop-opacity="1"></stop></linearGradient></defs><defs><linearGradient id="grad2_0" x1="0%" y1="0%" x2="100%" y2="100%"><stop offset="30%" stop-color="#feecd3" stop-opacity="1"></stop><stop offset="70%" stop-color="#feecd3" stop-opacity="1"></stop></linearGradient></defs><defs><linearGradient id="grad2_1" x1="0%" y1="0%" x2="100%" y2="100%"><stop offset="30%" stop-color="#998f82" stop-opacity="1"></stop><stop offset="70%" stop-color="#feecd3" stop-opacity="1"></stop></linearGradient></defs><defs><linearGradient id="grad2_2" x1="0%" y1="0%" x2="100%" y2="100%"><stop offset="30%" stop-color="#998f82" stop-opacity="1"></stop><stop offset="70%" stop-color="#403d39" stop-opacity="1"></stop></linearGradient></defs><g transform="translate(675, 0)"><path d="M0 506.3C-47.7 456.8 -95.4 407.3 -161.9 390.8C-228.4 374.3 -313.8 390.8 -358 358C-402.2 325.2 -405.3 243.1 -423.1 175.3C-441 107.4 -473.6 53.7 -506.2 0L0 0Z" fill="#6b655c"></path><path d="M0 337.5C-31.8 304.5 -63.6 271.5 -107.9 260.5C-152.3 249.5 -209.2 260.5 -238.6 238.6C-268.1 216.8 -270.2 162.1 -282.1 116.8C-294 71.6 -315.7 35.8 -337.5 0L0 0Z" fill="#cbbda9"></path><path d="M0 168.8C-15.9 152.3 -31.8 135.8 -54 130.3C-76.1 124.8 -104.6 130.3 -119.3 119.3C-134.1 108.4 -135.1 81 -141 58.4C-147 35.8 -157.9 17.9 -168.7 0L0 0Z" fill="#feecd3"></path></g><g transform="translate(0, 900)"><path d="M0 -506.2C75.5 -508.3 151.1 -510.4 193.7 -467.7C236.4 -425 246.2 -337.6 287.8 -287.8C329.4 -238 402.7 -225.8 444.4 -184.1C486.1 -142.4 496.2 -71.2 506.3 0L0 0Z" fill="#6b655c"></path><path d="M0 -337.5C50.4 -338.9 100.7 -340.3 129.2 -311.8C157.6 -283.4 164.1 -225.1 191.9 -191.9C219.6 -158.7 268.5 -150.5 296.3 -122.7C324.1 -94.9 330.8 -47.5 337.5 0L0 0Z" fill="#cbbda9"></path><path d="M0 -168.7C25.2 -169.4 50.4 -170.1 64.6 -155.9C78.8 -141.7 82.1 -112.5 95.9 -95.9C109.8 -79.3 134.2 -75.3 148.1 -61.4C162 -47.5 165.4 -23.7 168.8 0L0 0Z" fill="#feecd3"></path></g></svg>