<svg id="visual" viewBox="0 0 675 900" width="675" height="900" xmlns="http://www.w3.org/2000/svg" xmlns:xlink="http://www.w3.org/1999/xlink" version="1.1"><rect x="0" y="0" width="675" height="900" fill="#998F82"></rect><defs><linearGradient id="grad1_0" x1="0%" y1="0%" x2="100%" y2="100%"><stop offset="30%" stop-color="#fff7ed" stop-opacity="1"></stop><stop offset="70%" stop-color="#fff7ed" stop-opacity="1"></stop></linearGradient></defs><defs><linearGradient id="grad1_1" x1="0%" y1="0%" x2="100%" y2="100%"><stop offset="30%" stop-color="#fff7ed" stop-opacity="1"></stop><stop offset="70%" stop-color="#998f82" stop-opacity="1"></stop></linearGradient></defs><defs><linearGradient id="grad2_0" x1="0%" y1="0%" x2="100%" y2="100%"><stop offset="30%" stop-color="#fff7ed" stop-opacity="1"></stop><stop offset="70%" stop-color="#fff7ed" stop-opacity="1"></stop></linearGradient></defs><defs><linearGradient id="grad2_1" x1="0%" y1="0%" x2="100%" y2="100%"><stop offset="30%" stop-color="#998f82" stop-opacity="1"></stop><stop offset="70%" stop-color="#fff7ed" stop-opacity="1"></stop></linearGradient></defs><g transform="translate(675, 0)"><path d="M0 506.3C-52.2 465.2 -104.4 424.2 -168 405.6C-231.6 387 -306.5 390.8 -358 358C-409.4 325.1 -437.4 255.6 -458.2 189.8C-479 124 -492.6 62 -506.2 0L0 0Z" fill="#cbc2b6"></path><path d="M0 253.1C-26.1 232.6 -52.2 212.1 -84 202.8C-115.8 193.5 -153.3 195.4 -179 179C-204.7 162.6 -218.7 127.8 -229.1 94.9C-239.5 62 -246.3 31 -253.1 0L0 0Z" fill="#fff7ed"></path></g><g transform="translate(0, 900)"><path d="M0 -506.2C70.3 -503.4 140.5 -500.6 193.7 -467.7C247 -434.8 283.1 -372 320.3 -320.3C357.5 -268.7 395.7 -228.3 426.8 -176.8C458 -125.3 482.1 -62.6 506.3 0L0 0Z" fill="#cbc2b6"></path><path d="M0 -253.1C35.1 -251.7 70.3 -250.3 96.9 -233.9C123.5 -217.4 141.6 -186 160.2 -160.2C178.8 -134.3 197.8 -114.2 213.4 -88.4C229 -62.6 241.1 -31.3 253.1 0L0 0Z" fill="#fff7ed"></path></g></svg>