<svg id="visual" viewBox="0 0 675 900" width="675" height="900" xmlns="http://www.w3.org/2000/svg" xmlns:xlink="http://www.w3.org/1999/xlink" version="1.1"><rect x="0" y="0" width="675" height="900" fill="#998F82"></rect><defs><linearGradient id="grad1_0" x1="0%" y1="0%" x2="100%" y2="100%"><stop offset="30%" stop-color="#feecd3" stop-opacity="1"></stop><stop offset="70%" stop-color="#feecd3" stop-opacity="1"></stop></linearGradient></defs><defs><linearGradient id="grad1_1" x1="0%" y1="0%" x2="100%" y2="100%"><stop offset="30%" stop-color="#feecd3" stop-opacity="1"></stop><stop offset="70%" stop-color="#998f82" stop-opacity="1"></stop></linearGradient></defs><defs><linearGradient id="grad2_0" x1="0%" y1="0%" x2="100%" y2="100%"><stop offset="30%" stop-color="#feecd3" stop-opacity="1"></stop><stop offset="70%" stop-color="#feecd3" stop-opacity="1"></stop></linearGradient></defs><defs><linearGradient id="grad2_1" x1="0%" y1="0%" x2="100%" y2="100%"><stop offset="30%" stop-color="#998f82" stop-opacity="1"></stop><stop offset="70%" stop-color="#feecd3" stop-opacity="1"></stop></linearGradient></defs><g transform="translate(675, 0)"><path d="M0 506.3C-62 487 -124 467.7 -184.1 444.4C-244.2 421.1 -302.3 393.7 -352.1 352.1C-402 310.6 -443.4 254.8 -467.7 193.7C-492 132.7 -499.1 66.3 -506.2 0L0 0Z" fill="#cabcaa"></path><path d="M0 253.1C-31 243.5 -62 233.9 -92 222.2C-122.1 210.5 -151.2 196.9 -176.1 176.1C-201 155.3 -221.7 127.4 -233.9 96.9C-246 66.3 -249.6 33.2 -253.1 0L0 0Z" fill="#feecd3"></path></g><g transform="translate(0, 900)"><path d="M0 -506.2C60.5 -476.8 121 -447.3 172.6 -416.7C224.2 -386 266.9 -354.3 319.6 -319.6C372.3 -285 434.9 -247.5 467.7 -193.7C500.5 -140 503.4 -70 506.3 0L0 0Z" fill="#cabcaa"></path><path d="M0 -253.1C30.2 -238.4 60.5 -223.7 86.3 -208.3C112.1 -193 133.5 -177.1 159.8 -159.8C186.1 -142.5 217.5 -123.7 233.9 -96.9C250.2 -70 251.7 -35 253.1 0L0 0Z" fill="#feecd3"></path></g></svg>