<svg id="visual" viewBox="0 0 900 900" width="900" height="900" xmlns="http://www.w3.org/2000/svg" xmlns:xlink="http://www.w3.org/1999/xlink" version="1.1"><rect x="0" y="0" width="900" height="900" fill="#153D32"></rect><defs><linearGradient id="grad1_0" x1="0%" y1="0%" x2="100%" y2="100%"><stop offset="30%" stop-color="#feecd3" stop-opacity="1"></stop><stop offset="70%" stop-color="#feecd3" stop-opacity="1"></stop></linearGradient></defs><defs><linearGradient id="grad1_1" x1="0%" y1="0%" x2="100%" y2="100%"><stop offset="30%" stop-color="#feecd3" stop-opacity="1"></stop><stop offset="70%" stop-color="#859176" stop-opacity="1"></stop></linearGradient></defs><defs><linearGradient id="grad1_2" x1="0%" y1="0%" x2="100%" y2="100%"><stop offset="30%" stop-color="#153d32" stop-opacity="1"></stop><stop offset="70%" stop-color="#859176" stop-opacity="1"></stop></linearGradient></defs><defs><linearGradient id="grad2_0" x1="0%" y1="0%" x2="100%" y2="100%"><stop offset="30%" stop-color="#feecd3" stop-opacity="1"></stop><stop offset="70%" stop-color="#feecd3" stop-opacity="1"></stop></linearGradient></defs><defs><linearGradient id="grad2_1" x1="0%" y1="0%" x2="100%" y2="100%"><stop offset="30%" stop-color="#859176" stop-opacity="1"></stop><stop offset="70%" stop-color="#feecd3" stop-opacity="1"></stop></linearGradient></defs><defs><linearGradient id="grad2_2" x1="0%" y1="0%" x2="100%" y2="100%"><stop offset="30%" stop-color="#859176" stop-opacity="1"></stop><stop offset="70%" stop-color="#153d32" stop-opacity="1"></stop></linearGradient></defs><g transform="translate(900, 0)"><path d="M0 572.8C-68.1 547.8 -136.2 522.9 -206.6 498.9C-277.1 474.9 -350 451.8 -405 405C-460 358.2 -497 287.7 -522 216.2C-547 144.8 -559.9 72.4 -572.8 0L0 0Z" fill="#4c6651"></path><path d="M0 381.8C-45.4 365.2 -90.8 348.6 -137.8 332.6C-184.8 316.6 -233.4 301.2 -270 270C-306.6 238.8 -331.3 191.8 -348 144.1C-364.6 96.5 -373.2 48.3 -381.8 0L0 0Z" fill="#c1bda1"></path><path d="M0 190.9C-22.7 182.6 -45.4 174.3 -68.9 166.3C-92.4 158.3 -116.7 150.6 -135 135C-153.3 119.4 -165.7 95.9 -174 72.1C-182.3 48.3 -186.6 24.1 -190.9 0L0 0Z" fill="#feecd3"></path></g><g transform="translate(0, 900)"><path d="M0 -572.8C74.5 -563.2 148.9 -553.6 218.5 -527.5C288.1 -501.5 352.8 -458.9 405 -405C457.2 -351.1 497 -286 522.9 -216.6C548.8 -147.2 560.8 -73.6 572.8 0L0 0Z" fill="#4c6651"></path><path d="M0 -381.8C49.6 -375.5 99.3 -369.1 145.7 -351.7C192.1 -334.3 235.2 -305.9 270 -270C304.8 -234.1 331.4 -190.7 348.6 -144.4C365.9 -98.1 373.9 -49.1 381.8 0L0 0Z" fill="#c1bda1"></path><path d="M0 -190.9C24.8 -187.7 49.6 -184.5 72.8 -175.8C96 -167.2 117.6 -153 135 -135C152.4 -117 165.7 -95.3 174.3 -72.2C182.9 -49.1 186.9 -24.5 190.9 0L0 0Z" fill="#feecd3"></path></g></svg>